<svg xmlns="http://www.w3.org/2000/svg" xmlns:xlink="http://www.w3.org/1999/xlink" viewBox="0 0 41.96 75.7"><defs><style>.cls-1{fill:url(#linear-gradient);}.cls-2{fill:url(#linear-gradient-2);}.cls-3{fill:url(#linear-gradient-3);}.cls-4{fill:url(#kostakis);}.cls-5{fill:url(#kostakis-2);}.cls-6{fill:url(#kostakis-3);}.cls-7{fill:url(#linear-gradient-4);}.cls-8{fill:url(#linear-gradient-5);}</style><linearGradient id="linear-gradient" x1="1.19" y1="51.09" x2="40.77" y2="51.09" gradientUnits="userSpaceOnUse"><stop offset="0" stop-color="#ed6f3c"/><stop offset="1" stop-color="#e83d59"/></linearGradient><linearGradient id="linear-gradient-2" x1="31.09" y1="21.91" x2="36.89" y2="21.91" gradientUnits="userSpaceOnUse"><stop offset="0" stop-color="#3e70b6"/><stop offset="1" stop-color="#7e4997"/></linearGradient><linearGradient id="linear-gradient-3" x1="0" y1="28.71" x2="41.96" y2="28.71" xlink:href="#linear-gradient"/><linearGradient id="kostakis" x1="1.24" y1="14.68" x2="7.07" y2="14.68" xlink:href="#linear-gradient-2"/><linearGradient id="kostakis-2" x1="17.46" y1="2.91" x2="23.29" y2="2.91" xlink:href="#linear-gradient-2"/><linearGradient id="kostakis-3" x1="29.11" y1="7.83" x2="35.65" y2="7.83" gradientTransform="translate(15.02 -20.6) rotate(45)" xlink:href="#linear-gradient-2"/><linearGradient id="linear-gradient-4" x1="21.51" y1="72.42" x2="28.05" y2="72.42" gradientTransform="translate(58.47 3.69) rotate(45)" xlink:href="#linear-gradient-2"/><linearGradient id="linear-gradient-5" x1="18.15" y1="17.44" x2="22.6" y2="17.44" xlink:href="#linear-gradient-2"/></defs><title>Asset 2</title><g id="Layer_2" data-name="Layer 2"><g id="Layer_1-2" data-name="Layer 1"><path class="cls-1" d="M16.77,50.59a1,1,0,0,1,.24.67V69l7.93-6.08V51.26a1,1,0,0,1,.25-.67L40.77,33.17H1.19Z"/><path class="cls-2" d="M32,20.41a2.81,2.81,0,0,0-.86,2,2.75,2.75,0,0,0,.68,1.83h4.47A2.89,2.89,0,0,0,32,20.41Z"/><rect class="cls-3" y="26.24" width="41.96" height="4.96"/><path class="cls-4" d="M4.15,17.6a2.86,2.86,0,0,0,2.06-.86,2.91,2.91,0,1,0-4.11,0A2.8,2.8,0,0,0,4.15,17.6Z"/><path class="cls-5" d="M20.37,5.83A2.86,2.86,0,0,0,22.43,5a2.91,2.91,0,1,0-4.11,0A2.8,2.8,0,0,0,20.37,5.83Z"/><rect class="cls-6" x="30.06" y="5.52" width="4.63" height="4.63" transform="translate(3.94 25.19) rotate(-45)"/><rect class="cls-7" x="22.46" y="70.11" width="4.63" height="4.63" transform="translate(-43.95 38.73) rotate(-45)"/><polygon class="cls-8" points="18.48 19.71 22.6 16.19 18.15 15.17 18.48 19.71"/></g></g></svg>