<svg xmlns="http://www.w3.org/2000/svg" xmlns:xlink="http://www.w3.org/1999/xlink" viewBox="0 0 65.83 62.71"><defs><style>.cls-1{fill:url(#linear-gradient);}.cls-2{fill:url(#linear-gradient-2);}.cls-3{fill:url(#linear-gradient-3);}.cls-4{fill:url(#linear-gradient-4);}.cls-5{fill:url(#linear-gradient-5);}.cls-6{fill:url(#kostakis);}.cls-7{fill:url(#kostakis-2);}.cls-8{fill:url(#linear-gradient-6);}.cls-9{fill:url(#linear-gradient-7);}.cls-10{fill:url(#kostakis-3);}.cls-11{fill:url(#linear-gradient-8);}.cls-12{fill:url(#linear-gradient-9);}.cls-13{fill:url(#linear-gradient-10);}.cls-14{fill:url(#linear-gradient-11);}</style><linearGradient id="linear-gradient" x1="25.32" y1="20.93" x2="42.95" y2="20.93" gradientUnits="userSpaceOnUse"><stop offset="0" stop-color="#ed6f3c"/><stop offset="1" stop-color="#e83d59"/></linearGradient><linearGradient id="linear-gradient-2" x1="21.4" y1="13.63" x2="31.35" y2="13.63" xlink:href="#linear-gradient"/><linearGradient id="linear-gradient-3" x1="35.93" y1="4.88" x2="45.68" y2="4.88" xlink:href="#linear-gradient"/><linearGradient id="linear-gradient-4" x1="13.33" y1="4.88" x2="18.49" y2="4.88" xlink:href="#linear-gradient"/><linearGradient id="linear-gradient-5" x1="7.04" y1="31.74" x2="19.77" y2="31.74" xlink:href="#linear-gradient"/><linearGradient id="kostakis" x1="0.63" y1="26.1" x2="9" y2="26.1" gradientUnits="userSpaceOnUse"><stop offset="0" stop-color="#3e70b6"/><stop offset="1" stop-color="#7e4997"/></linearGradient><linearGradient id="kostakis-2" x1="9.44" y1="54.41" x2="18.29" y2="54.41" xlink:href="#kostakis"/><linearGradient id="linear-gradient-6" x1="22.62" y1="43.68" x2="42.72" y2="43.68" xlink:href="#linear-gradient"/><linearGradient id="linear-gradient-7" x1="35.19" y1="56.24" x2="48.14" y2="56.24" xlink:href="#linear-gradient"/><linearGradient id="kostakis-3" x1="55.14" y1="29.79" x2="65.83" y2="29.79" xlink:href="#kostakis"/><linearGradient id="linear-gradient-8" x1="0" y1="44.93" x2="10.52" y2="44.93" xlink:href="#linear-gradient"/><linearGradient id="linear-gradient-9" x1="47.34" y1="36.92" x2="55.14" y2="36.92" xlink:href="#linear-gradient"/><linearGradient id="linear-gradient-10" x1="48.15" y1="17.49" x2="54.02" y2="17.49" xlink:href="#linear-gradient"/><linearGradient id="linear-gradient-11" x1="59.64" y1="38.87" x2="63.54" y2="38.87" xlink:href="#linear-gradient"/></defs><title>Asset 4</title><g id="Layer_2" data-name="Layer 2"><g id="Layer_1-2" data-name="Layer 1"><path class="cls-1" d="M34.14,12.11A8.82,8.82,0,1,0,43,20.93,8.83,8.83,0,0,0,34.14,12.11Z"/><path class="cls-2" d="M26.61,8.59a5.21,5.21,0,0,0-1.86,10.07,9.71,9.71,0,0,1,6.6-7A5.17,5.17,0,0,0,26.61,8.59Z"/><path class="cls-3" d="M40.81,9.75a4.88,4.88,0,1,1,4.87-4.87A4.88,4.88,0,0,1,40.81,9.75Z"/><circle class="cls-4" cx="15.91" cy="4.88" r="2.58"/><path class="cls-5" d="M13.4,25.38a6.23,6.23,0,0,0-3.52,1.09,5.07,5.07,0,0,1-2.73,4.11A7.71,7.71,0,0,0,7,31.74a6.37,6.37,0,1,0,6.36-6.36Z"/><path class="cls-6" d="M4.81,21.91A4.19,4.19,0,1,0,9,26.1,4.19,4.19,0,0,0,4.81,21.91Z"/><path class="cls-7" d="M13.87,58.83a4.42,4.42,0,1,1,4.42-4.42A4.43,4.43,0,0,1,13.87,58.83Z"/><path class="cls-8" d="M32.67,33.62a10.06,10.06,0,1,0,10,10.05A10.06,10.06,0,0,0,32.67,33.62Z"/><path class="cls-9" d="M41.72,49.77a11,11,0,0,1-6.19,4.42,6.33,6.33,0,0,0-.34,2,6.48,6.48,0,1,0,6.53-6.46Z"/><path class="cls-10" d="M64.77,26.6a5.34,5.34,0,1,0-1.09,7.48A5.35,5.35,0,0,0,64.77,26.6Z"/><path class="cls-11" d="M10.07,42.8a5.26,5.26,0,1,0-2.68,6.94A5.25,5.25,0,0,0,10.07,42.8Z"/><circle class="cls-12" cx="51.24" cy="36.92" r="3.9"/><circle class="cls-13" cx="51.08" cy="17.49" r="2.94"/><circle class="cls-14" cx="61.59" cy="38.87" r="1.95"/></g></g></svg>