<svg xmlns="http://www.w3.org/2000/svg" xmlns:xlink="http://www.w3.org/1999/xlink" viewBox="0 0 54.05 54.34"><defs><style>.cls-1{fill:url(#linear-gradient);}.cls-2{fill:url(#linear-gradient-2);}.cls-3{fill:url(#linear-gradient-3);}.cls-4{fill:url(#linear-gradient-4);}.cls-5{fill:url(#linear-gradient-5);}.cls-6{fill:url(#linear-gradient-6);}.cls-7{fill:url(#linear-gradient-7);}.cls-8{fill:url(#linear-gradient-8);}.cls-9{fill:url(#linear-gradient-9);}.cls-10{fill:url(#linear-gradient-10);}.cls-11{fill:url(#linear-gradient-11);}.cls-12{fill:url(#linear-gradient-12);}.cls-13{fill:url(#linear-gradient-13);}.cls-14{fill:url(#linear-gradient-14);}.cls-15{fill:url(#linear-gradient-15);}.cls-16{fill:url(#linear-gradient-16);}.cls-17{fill:url(#linear-gradient-17);}.cls-18{fill:url(#linear-gradient-18);}.cls-19{fill:url(#linear-gradient-19);}.cls-20{fill:url(#linear-gradient-20);}.cls-21{fill:url(#linear-gradient-21);}.cls-22{fill:url(#linear-gradient-22);}.cls-23{fill:url(#linear-gradient-23);}.cls-24{fill:url(#linear-gradient-24);}.cls-25{fill:url(#linear-gradient-25);}.cls-26{fill:url(#linear-gradient-26);}.cls-27{fill:url(#linear-gradient-27);}.cls-28{fill:url(#linear-gradient-28);}</style><linearGradient id="linear-gradient" y1="45.21" x2="25.85" y2="45.21" gradientUnits="userSpaceOnUse"><stop offset="0" stop-color="#3e70b6"/><stop offset="1" stop-color="#7e4997"/></linearGradient><linearGradient id="linear-gradient-2" x1="28.2" y1="45.21" x2="54.05" y2="45.21" xlink:href="#linear-gradient"/><linearGradient id="linear-gradient-3" x1="46.02" y1="34.72" x2="52.14" y2="34.72" xlink:href="#linear-gradient"/><linearGradient id="linear-gradient-4" x1="33.14" y1="39.69" x2="43.59" y2="39.69" xlink:href="#linear-gradient"/><linearGradient id="linear-gradient-5" x1="10.46" y1="39.69" x2="20.91" y2="39.69" xlink:href="#linear-gradient"/><linearGradient id="linear-gradient-6" x1="1.99" y1="34.72" x2="8.17" y2="34.72" xlink:href="#linear-gradient"/><linearGradient id="linear-gradient-7" x1="23.12" y1="43.63" x2="30.93" y2="43.63" xlink:href="#linear-gradient"/><linearGradient id="linear-gradient-8" x1="8.76" y1="34.53" x2="19.88" y2="34.53" xlink:href="#linear-gradient"/><linearGradient id="linear-gradient-9" x1="8.76" y1="30.36" x2="19.59" y2="30.36" xlink:href="#linear-gradient"/><linearGradient id="linear-gradient-10" x1="34.32" y1="34.5" x2="45.36" y2="34.5" xlink:href="#linear-gradient"/><linearGradient id="linear-gradient-11" x1="34.46" y1="30.34" x2="45.29" y2="30.34" xlink:href="#linear-gradient"/><linearGradient id="linear-gradient-12" x1="21.5" y1="39.61" x2="32.62" y2="39.61" xlink:href="#linear-gradient"/><linearGradient id="linear-gradient-13" x1="21.5" y1="35.37" x2="32.62" y2="35.37" xlink:href="#linear-gradient"/><linearGradient id="linear-gradient-14" x1="28.2" y1="21.5" x2="54.05" y2="21.5" gradientUnits="userSpaceOnUse"><stop offset="0" stop-color="#ed6f3c"/><stop offset="1" stop-color="#e83d59"/></linearGradient><linearGradient id="linear-gradient-15" x1="0" y1="21.5" x2="25.85" y2="21.5" xlink:href="#linear-gradient-14"/><linearGradient id="linear-gradient-16" x1="46.02" y1="11.01" x2="52.14" y2="11.01" xlink:href="#linear-gradient-14"/><linearGradient id="linear-gradient-17" x1="33.14" y1="15.98" x2="43.59" y2="15.98" xlink:href="#linear-gradient-14"/><linearGradient id="linear-gradient-18" x1="10.46" y1="15.98" x2="20.99" y2="15.98" xlink:href="#linear-gradient-14"/><linearGradient id="linear-gradient-19" x1="1.99" y1="11.01" x2="8.17" y2="11.01" xlink:href="#linear-gradient-14"/><linearGradient id="linear-gradient-20" x1="23.12" y1="19.92" x2="30.93" y2="19.92" xlink:href="#linear-gradient-14"/><linearGradient id="linear-gradient-21" x1="21.5" y1="5.77" x2="32.55" y2="5.77" xlink:href="#linear-gradient-14"/><linearGradient id="linear-gradient-22" x1="21.5" y1="1.54" x2="32.62" y2="1.54" xlink:href="#linear-gradient-14"/><linearGradient id="linear-gradient-23" x1="8.76" y1="10.82" x2="19.88" y2="10.82" xlink:href="#linear-gradient-14"/><linearGradient id="linear-gradient-24" x1="8.76" y1="6.63" x2="19.88" y2="6.63" xlink:href="#linear-gradient-14"/><linearGradient id="linear-gradient-25" x1="34.24" y1="10.82" x2="45.36" y2="10.82" xlink:href="#linear-gradient-14"/><linearGradient id="linear-gradient-26" x1="34.24" y1="6.63" x2="45.36" y2="6.63" xlink:href="#linear-gradient-14"/><linearGradient id="linear-gradient-27" x1="21.5" y1="15.9" x2="32.55" y2="15.9" xlink:href="#linear-gradient-14"/><linearGradient id="linear-gradient-28" x1="21.57" y1="11.7" x2="32.62" y2="11.7" xlink:href="#linear-gradient-14"/></defs><title>Asset 3</title><g id="Layer_2" data-name="Layer 2"><g id="Layer_1-2" data-name="Layer 1"><polygon class="cls-1" points="0 43.96 25.85 54.34 25.85 46.39 0 36.08 0 43.96"/><polygon class="cls-2" points="28.2 54.34 54.05 43.96 54.05 36.08 28.2 46.39 28.2 54.34"/><path class="cls-3" d="M47.64,32.62v1.92A2.91,2.91,0,0,1,46,36.82l6.12-2.43Z"/><path class="cls-4" d="M33.14,42l10.45-4.19a16.22,16.22,0,0,1-3.83.44,14.9,14.9,0,0,1-4.93-.81v2.21A2.8,2.8,0,0,1,33.14,42Z"/><path class="cls-5" d="M19.22,39.62V37.41a14.78,14.78,0,0,1-4.86.81,16.39,16.39,0,0,1-3.9-.44L20.91,42A3,3,0,0,1,19.22,39.62Z"/><path class="cls-6" d="M6.48,34.54v-2L2,34.39l6.18,2.5A3,3,0,0,1,6.48,34.54Z"/><path class="cls-7" d="M27,43.3a16.51,16.51,0,0,1-3.9-.44L27,44.4l3.91-1.54A16.54,16.54,0,0,1,27,43.3Z"/><path class="cls-8" d="M8.76,33.14v1.25c0,.07.3.44,1.25.81a13.26,13.26,0,0,0,8.62,0,2.43,2.43,0,0,0,.66-.3,2.78,2.78,0,0,1,.59-1.1v-.66c-.15.07-.22.07-.37.14a14.23,14.23,0,0,1-5.15.89,14.32,14.32,0,0,1-5.16-.89h0A3.31,3.31,0,0,1,8.76,33.14Z"/><path class="cls-9" d="M10,31.15a13.26,13.26,0,0,0,8.62,0,3.28,3.28,0,0,0,1-.52l-4.42-1.76a13.94,13.94,0,0,0-5.16.66,2.73,2.73,0,0,0-1.25.81C8.76,30.41,9.06,30.78,10,31.15Z"/><path class="cls-10" d="M44.11,35.2a2.58,2.58,0,0,0,1.25-.81h0V33.14c-.15.07-.22.07-.37.14a15.37,15.37,0,0,1-10.31,0c-.14-.07-.22-.07-.36-.14v.73a2.51,2.51,0,0,1,.51,1,3.36,3.36,0,0,0,.74.37A14.14,14.14,0,0,0,44.11,35.2Z"/><path class="cls-11" d="M38.88,28.87l-4.42,1.76a2.82,2.82,0,0,0,1,.52,13.26,13.26,0,0,0,8.62,0,2.73,2.73,0,0,0,1.25-.81c0-.07-.3-.44-1.25-.81A11.4,11.4,0,0,0,38.88,28.87Z"/><path class="cls-12" d="M27,39.25a14.45,14.45,0,0,1-5.15-.88h0c-.15-.08-.22-.08-.37-.15v1.25c0,.07.3.44,1.25.81a13.26,13.26,0,0,0,8.62,0,2.58,2.58,0,0,0,1.25-.81h0V38.29a.74.74,0,0,0-.44.08A14.47,14.47,0,0,1,27,39.25Z"/><path class="cls-13" d="M27,33.87a12.23,12.23,0,0,0-4.27.67,2.56,2.56,0,0,0-1.25.81c0,.07.3.44,1.25.81h0a13.39,13.39,0,0,0,8.62,0,2.58,2.58,0,0,0,1.25-.81c0-.08-.29-.45-1.25-.81A13,13,0,0,0,27,33.87Z"/><polygon class="cls-14" points="28.2 30.63 54.05 20.25 54.05 12.37 28.2 22.68 28.2 30.63"/><polygon class="cls-15" points="25.85 22.68 0 12.37 0 20.25 25.85 30.63 25.85 22.68"/><path class="cls-16" d="M47.64,8.91v1.91A2.93,2.93,0,0,1,46,13.11l6.12-2.43Z"/><path class="cls-17" d="M39.76,14.51a14.9,14.9,0,0,1-4.93-.81v2.21a3,3,0,0,1-1.69,2.35l10.45-4.2A14.91,14.91,0,0,1,39.76,14.51Z"/><path class="cls-18" d="M19.22,15.76V13.7a14.78,14.78,0,0,1-4.86.81,15.88,15.88,0,0,1-3.9-.45L21,18.26a3,3,0,0,1-1.7-2.35C19.22,15.83,19.22,15.83,19.22,15.76Z"/><path class="cls-19" d="M6.48,10.82v-2L2,10.68l6.18,2.5A3,3,0,0,1,6.48,10.82Z"/><path class="cls-20" d="M27,19.59a16.51,16.51,0,0,1-3.9-.44L27,20.69l3.91-1.54A16.54,16.54,0,0,1,27,19.59Z"/><path class="cls-21" d="M32.55,5.08V4.42c-.15.07-.22.07-.37.15A14.47,14.47,0,0,1,27,5.45a14.45,14.45,0,0,1-5.15-.88h0c-.15-.08-.22-.08-.37-.15V5a2.3,2.3,0,0,1,.59,1.1,3,3,0,0,0,.66.3,13.39,13.39,0,0,0,8.62,0A2.57,2.57,0,0,0,32,6,2.48,2.48,0,0,1,32.55,5.08Z"/><path class="cls-22" d="M22.75,2.36h0a13.39,13.39,0,0,0,8.62,0,2.58,2.58,0,0,0,1.25-.81c0-.08-.29-.45-1.25-.81A12.42,12.42,0,0,0,27.1,0a12.59,12.59,0,0,0-4.35.74,2.56,2.56,0,0,0-1.25.81C21.5,1.62,21.8,2,22.75,2.36Z"/><path class="cls-23" d="M8.76,9.43v1.25c0,.07.3.44,1.25.81a13.39,13.39,0,0,0,8.62,0,2.78,2.78,0,0,0,.66-.3,2.78,2.78,0,0,1,.59-1.1V9.43c-.15.07-.22.07-.37.14a14.23,14.23,0,0,1-5.15.89A14.32,14.32,0,0,1,9.2,9.57h0A3.31,3.31,0,0,1,8.76,9.43Z"/><path class="cls-24" d="M10,7.44a13.39,13.39,0,0,0,8.62,0,2.58,2.58,0,0,0,1.25-.81c0-.08-.29-.44-1.25-.81a13.26,13.26,0,0,0-8.62,0,2.64,2.64,0,0,0-1.25.81C8.76,6.7,9.06,7.07,10,7.44Z"/><path class="cls-25" d="M39.76,10.46a14.23,14.23,0,0,1-5.15-.89c-.15-.07-.22-.07-.37-.14v.73a2.48,2.48,0,0,1,.52,1,3.26,3.26,0,0,0,.73.37,13.39,13.39,0,0,0,8.62,0,2.58,2.58,0,0,0,1.25-.81h0V9.5c-.15.07-.22.07-.37.15A16.36,16.36,0,0,1,39.76,10.46Z"/><path class="cls-26" d="M35.49,7.44a13.39,13.39,0,0,0,8.62,0,2.58,2.58,0,0,0,1.25-.81c0-.08-.29-.44-1.25-.81a13.26,13.26,0,0,0-8.62,0,2.64,2.64,0,0,0-1.25.81A2.73,2.73,0,0,0,35.49,7.44Z"/><path class="cls-27" d="M32.55,15.76h0V14.51c-.15.07-.22.07-.37.14a14.25,14.25,0,0,1-5.16.89,14.23,14.23,0,0,1-5.15-.89h0c-.15-.07-.22-.07-.37-.14v1.25c0,.07.3.44,1.25.81a13.26,13.26,0,0,0,8.62,0C32.25,16.2,32.55,15.83,32.55,15.76Z"/><path class="cls-28" d="M22.75,12.52h0a13.26,13.26,0,0,0,8.62,0,2.58,2.58,0,0,0,1.25-.81c0-.08-.29-.44-1.25-.81a12.67,12.67,0,0,0-4.27-.74,12.4,12.4,0,0,0-4.27.66,2.58,2.58,0,0,0-1.25.81C21.5,11.78,21.8,12.15,22.75,12.52Z"/></g></g></svg>