<svg xmlns="http://www.w3.org/2000/svg" xmlns:xlink="http://www.w3.org/1999/xlink" viewBox="0 0 92 14.2"><defs><style>.cls-1{fill:url(#linear-gradient);}.cls-2{fill:url(#linear-gradient-2);}</style><linearGradient id="linear-gradient" y1="7.1" x2="72.4" y2="7.1" gradientUnits="userSpaceOnUse"><stop offset="0" stop-color="#ed6f3c"/><stop offset="1" stop-color="#e83d59"/></linearGradient><linearGradient id="linear-gradient-2" x1="77.8" y1="7.1" x2="92" y2="7.1" xlink:href="#linear-gradient"/></defs><title>Asset 1</title><g id="Layer_2" data-name="Layer 2"><g id="Layer_1-2" data-name="Layer 1"><path class="cls-1" d="M65.5,0a7.07,7.07,0,0,0-6.9,5.6H53a7.05,7.05,0,0,0-13.8,0H33.6a7.05,7.05,0,0,0-13.8,0H14a7.1,7.1,0,1,0,0,3h5.6a7.05,7.05,0,0,0,13.8,0H39a7.05,7.05,0,0,0,13.8,0h5.6a7.08,7.08,0,0,0,14-1.5A6.9,6.9,0,0,0,65.5,0Z"/><path class="cls-2" d="M84.9,0A7.1,7.1,0,1,0,92,7.1,7.13,7.13,0,0,0,84.9,0Zm0,13.2a6.06,6.06,0,0,1-6.1-6.1A6.1,6.1,0,1,1,91,7.1,6.06,6.06,0,0,1,84.9,13.2Z"/></g></g></svg>