<svg xmlns="http://www.w3.org/2000/svg" width="20" height="20" viewBox="0 0 20 20">
    <path fill="#fff" fill-rule="evenodd" d="M19.834 18.216l-5.175-5.213a.578.578 0 0 1-.064-.728c2.122-3.254 1.627-7.73-1.503-10.402C10.08-.7 5.495-.611 2.577 2.068c-3.35 3.075-3.434 8.308-.252 11.492 2.713 2.716 6.912 3.046 9.996 1.006a.575.575 0 0 1 .73.063l5.164 5.202a.571.571 0 0 0 .81.001l.808-.808a.572.572 0 0 0 0-.808zM3.94 11.943a5.677 5.677 0 0 1 0-8.015 5.666 5.666 0 0 1 8.008 0 5.677 5.677 0 0 1 0 8.015 5.666 5.666 0 0 1-8.008 0z"/>
</svg>
